<svg width="401" height="361" viewBox="0 0 401 361" fill="none" xmlns="http://www.w3.org/2000/svg">
<g clip-path="url(#clip0_5_3)">
<path d="M249.255 209.051H102.741C97.9048 209.046 93.2683 207.122 89.8487 203.703C86.4291 200.283 84.5055 195.647 84.5 190.811V18.7406C84.5055 13.9046 86.4291 9.26826 89.8487 5.84868C93.2683 2.42909 97.9046 0.505539 102.741 0.5H238.874L267.496 23.3136V190.81C267.491 195.646 265.567 200.283 262.148 203.703C258.728 207.122 254.091 209.046 249.255 209.051Z" stroke="#FDFFFC"/>
<path d="M220.53 55.4284H153.823C153.413 55.4284 153.008 55.3477 152.629 55.1909C152.25 55.034 151.906 54.8042 151.616 54.5144C151.327 54.2246 151.097 53.8806 150.94 53.5019C150.783 53.1233 150.702 52.7175 150.702 52.3077C150.702 51.8978 150.783 51.492 150.94 51.1134C151.097 50.7348 151.327 50.3907 151.616 50.1009C151.906 49.8112 152.25 49.5813 152.629 49.4244C153.008 49.2676 153.413 49.1869 153.823 49.1869H220.53C220.939 49.1869 221.345 49.2676 221.724 49.4244C222.103 49.5813 222.447 49.8112 222.736 50.1009C223.026 50.3907 223.256 50.7348 223.413 51.1134C223.57 51.492 223.65 51.8978 223.65 52.3077C223.65 52.7175 223.57 53.1233 223.413 53.5019C223.256 53.8806 223.026 54.2246 222.736 54.5144C222.447 54.8042 222.103 55.034 221.724 55.1909C221.345 55.3477 220.939 55.4284 220.53 55.4284Z" fill="#CCCCCC"/>
<path d="M233.403 65.961H153.823C152.995 65.961 152.202 65.6322 151.616 65.047C151.031 64.4617 150.702 63.6679 150.702 62.8403C150.702 62.0126 151.031 61.2188 151.616 60.6335C152.202 60.0483 152.995 59.7195 153.823 59.7195H233.403C234.23 59.7195 235.024 60.0483 235.61 60.6335C236.195 61.2188 236.524 62.0126 236.524 62.8403C236.524 63.6679 236.195 64.4617 235.61 65.047C235.024 65.6322 234.23 65.961 233.403 65.961Z" fill="#CCCCCC"/>
<path d="M220.53 102.63H153.823C152.995 102.63 152.202 102.301 151.616 101.716C151.031 101.131 150.702 100.337 150.702 99.5093C150.702 98.6816 151.031 97.8879 151.616 97.3026C152.202 96.7173 152.995 96.3885 153.823 96.3885H220.53C221.357 96.3885 222.151 96.7173 222.736 97.3026C223.322 97.8879 223.65 98.6816 223.65 99.5093C223.65 100.337 223.322 101.131 222.736 101.716C222.151 102.301 221.357 102.63 220.53 102.63Z" fill="#CCCCCC"/>
<path d="M233.403 113.163H153.823C152.995 113.163 152.202 112.834 151.616 112.249C151.031 111.663 150.702 110.87 150.702 110.042C150.702 109.214 151.031 108.42 151.616 107.835C152.202 107.25 152.995 106.921 153.823 106.921H233.403C234.23 106.921 235.024 107.25 235.61 107.835C236.195 108.42 236.524 109.214 236.524 110.042C236.524 110.87 236.195 111.663 235.61 112.249C235.024 112.834 234.23 113.163 233.403 113.163Z" fill="#CCCCCC"/>
<path d="M220.53 149.832H153.823C152.995 149.832 152.202 149.503 151.616 148.918C151.031 148.332 150.702 147.539 150.702 146.711C150.702 145.883 151.031 145.09 151.616 144.504C152.202 143.919 152.995 143.59 153.823 143.59H220.53C221.357 143.59 222.151 143.919 222.736 144.504C223.322 145.09 223.65 145.883 223.65 146.711C223.65 147.539 223.322 148.332 222.736 148.918C222.151 149.503 221.357 149.832 220.53 149.832Z" fill="#CCCCCC"/>
<path d="M233.403 160.364H153.823C152.995 160.364 152.202 160.036 151.616 159.45C151.031 158.865 150.702 158.071 150.702 157.244C150.702 156.416 151.031 155.622 151.616 155.037C152.202 154.452 152.995 154.123 153.823 154.123H233.403C234.23 154.123 235.024 154.452 235.61 155.037C236.195 155.622 236.524 156.416 236.524 157.244C236.524 158.071 236.195 158.865 235.61 159.45C235.024 160.036 234.23 160.364 233.403 160.364Z" fill="#CCCCCC"/>
<path d="M126.045 68.6042C132.137 68.6042 137.075 63.6658 137.075 57.574C137.075 51.4822 132.137 46.5438 126.045 46.5438C119.953 46.5438 115.015 51.4822 115.015 57.574C115.015 63.6658 119.953 68.6042 126.045 68.6042Z" fill="#FF9000"/>
<path d="M124.952 61.7817C124.704 61.7821 124.462 61.7018 124.264 61.553L124.251 61.5437L121.659 59.5608C121.417 59.3748 121.258 59.1002 121.219 58.7975C121.179 58.4948 121.261 58.1886 121.446 57.9463C121.632 57.7039 121.907 57.5453 122.209 57.5052C122.512 57.465 122.818 57.5467 123.061 57.7323L124.74 59.0199L128.708 53.8436C128.8 53.7236 128.914 53.6229 129.045 53.5472C129.176 53.4715 129.321 53.4224 129.471 53.4026C129.621 53.3828 129.773 53.3927 129.919 53.4318C130.065 53.4709 130.202 53.5384 130.322 53.6304L130.322 53.6306L130.298 53.6648L130.323 53.6306C130.565 53.8167 130.723 54.0912 130.763 54.3939C130.803 54.6967 130.722 55.0029 130.536 55.2454L125.869 61.3311C125.761 61.4713 125.622 61.5848 125.463 61.6627C125.305 61.7406 125.13 61.7809 124.953 61.7803L124.952 61.7817Z" fill="white"/>
<path d="M127.181 115.806C133.273 115.806 138.211 110.867 138.211 104.776C138.211 98.6838 133.273 93.7454 127.181 93.7454C121.089 93.7454 116.151 98.6838 116.151 104.776C116.151 110.867 121.089 115.806 127.181 115.806Z" fill="#CCCCCC"/>
<path d="M126.045 163.007C132.137 163.007 137.075 158.069 137.075 151.977C137.075 145.885 132.137 140.947 126.045 140.947C119.953 140.947 115.015 145.885 115.015 151.977C115.015 158.069 119.953 163.007 126.045 163.007Z" fill="#CCCCCC"/>
<mask id="path-12-inside-1_5_3" fill="white">
<path d="M267.204 23.8152H244.529C242.873 23.8152 241.286 23.1577 240.115 21.9871C238.945 20.8166 238.287 19.2291 238.287 17.5737V0.826077C238.287 0.752755 238.308 0.68091 238.347 0.618795C238.386 0.556679 238.441 0.506802 238.507 0.474881C238.573 0.442961 238.647 0.430289 238.72 0.438322C238.793 0.446355 238.862 0.474766 238.919 0.520296L267.446 23.1194C267.509 23.1697 267.556 23.2385 267.578 23.3162C267.601 23.394 267.599 23.4769 267.572 23.5534C267.546 23.6299 267.496 23.6962 267.43 23.7431C267.364 23.79 267.285 23.8152 267.204 23.8152Z"/>
</mask>
<path d="M267.204 23.8152H244.529C242.873 23.8152 241.286 23.1577 240.115 21.9871C238.945 20.8166 238.287 19.2291 238.287 17.5737V0.826077C238.287 0.752755 238.308 0.68091 238.347 0.618795C238.386 0.556679 238.441 0.506802 238.507 0.474881C238.573 0.442961 238.647 0.430289 238.72 0.438322C238.793 0.446355 238.862 0.474766 238.919 0.520296L267.446 23.1194C267.509 23.1697 267.556 23.2385 267.578 23.3162C267.601 23.394 267.599 23.4769 267.572 23.5534C267.546 23.6299 267.496 23.6962 267.43 23.7431C267.364 23.79 267.285 23.8152 267.204 23.8152Z" fill="#FDFFFC"/>
<path d="M267.204 23.8152L267.204 22.8152H267.204V23.8152ZM244.529 23.8152V24.8152V23.8152ZM238.287 0.826077H239.287V0.826073L238.287 0.826077ZM238.919 0.520296L239.54 -0.263543L239.54 -0.263546L238.919 0.520296ZM267.446 23.1194L266.825 23.9032L266.825 23.9032L267.446 23.1194ZM267.204 22.8152H244.529V24.8152H267.204V22.8152ZM244.529 22.8152C243.138 22.8152 241.805 22.263 240.822 21.28L239.408 22.6942C240.766 24.0523 242.608 24.8152 244.529 24.8152V22.8152ZM240.822 21.28C239.839 20.2971 239.287 18.9639 239.287 17.5737H237.287C237.287 19.4943 238.05 21.3362 239.408 22.6942L240.822 21.28ZM239.287 17.5737V0.826077H237.287V17.5737H239.287ZM239.287 0.826073C239.287 0.940636 239.255 1.05296 239.194 1.15014L237.499 0.0874498C237.361 0.308862 237.287 0.564874 237.287 0.826082L239.287 0.826073ZM239.194 1.15014C239.133 1.2473 239.046 1.32526 238.943 1.37515L238.072 -0.425384C237.837 -0.311661 237.638 -0.133945 237.499 0.0874498L239.194 1.15014ZM238.943 1.37515C238.839 1.42504 238.724 1.44487 238.61 1.4323L238.829 -0.555658C238.57 -0.584288 238.307 -0.539114 238.072 -0.425384L238.943 1.37515ZM238.61 1.4323C238.496 1.41975 238.388 1.37536 238.298 1.30414L239.54 -0.263546C239.335 -0.425824 239.089 -0.527039 238.829 -0.555658L238.61 1.4323ZM238.298 1.30414L266.825 23.9032L268.067 22.3355L239.54 -0.263543L238.298 1.30414ZM266.825 23.9032C266.726 23.8247 266.654 23.7171 266.618 23.5954L268.539 23.037C268.458 22.7598 268.293 22.5147 268.067 22.3355L266.825 23.9032ZM266.618 23.5954C266.583 23.4738 266.586 23.3442 266.628 23.2247L268.517 23.8821C268.611 23.6096 268.619 23.3142 268.539 23.037L266.618 23.5954ZM266.628 23.2247C266.669 23.105 266.747 23.0014 266.85 22.928L268.009 24.5582C268.244 24.391 268.422 24.1547 268.517 23.8821L266.628 23.2247ZM266.85 22.928C266.954 22.8547 267.077 22.8152 267.204 22.8152L267.204 24.8152C267.492 24.8152 267.774 24.7254 268.009 24.5582L266.85 22.928Z" fill="#FDFFFC" mask="url(#path-12-inside-1_5_3)"/>
<path d="M113.708 241.792L27.0216 260.064C24.5165 260.589 21.9053 260.099 19.7611 258.701C17.6168 257.303 16.1146 255.112 15.5838 252.608L0.708658 182.037C0.183567 179.532 0.673613 176.921 2.07129 174.776C3.46896 172.632 5.66012 171.13 8.16404 170.599L94.8501 152.327C97.3552 151.802 99.9663 152.292 102.111 153.69C104.255 155.087 105.757 157.279 106.288 159.783L121.163 230.354C121.688 232.859 121.198 235.47 119.8 237.614C118.403 239.759 116.212 241.261 113.708 241.792Z" fill="white"/>
<path d="M113.708 241.792L27.0216 260.064C24.5165 260.589 21.9053 260.099 19.7611 258.701C17.6168 257.303 16.1146 255.112 15.5838 252.608L0.708658 182.037C0.183567 179.532 0.673613 176.921 2.07129 174.776C3.46896 172.632 5.66012 171.13 8.16404 170.599L94.8501 152.327C97.3552 151.802 99.9663 152.292 102.111 153.69C104.255 155.087 105.757 157.279 106.288 159.783L121.163 230.354C121.688 232.859 121.198 235.47 119.8 237.614C118.403 239.759 116.212 241.261 113.708 241.792ZM8.3983 171.71C6.18896 172.179 4.2556 173.504 3.02236 175.396C1.78912 177.288 1.35671 179.592 1.82001 181.803L16.6952 252.374C17.1635 254.583 18.489 256.517 20.381 257.75C22.273 258.983 24.5769 259.415 26.7873 258.952L113.473 240.68C115.683 240.212 117.616 238.886 118.849 236.994C120.083 235.102 120.515 232.799 120.052 230.588L105.176 160.017C104.708 157.808 103.383 155.874 101.491 154.641C99.5986 153.408 97.2947 152.975 95.0843 153.439L8.3983 171.71Z" fill="#3F3D56"/>
<path d="M89.464 175.597L45.7148 184.818C45.3319 184.907 44.9296 184.847 44.5892 184.651C44.2487 184.454 43.9956 184.136 43.8808 183.76C43.8284 183.564 43.8164 183.359 43.8457 183.159C43.8749 182.958 43.9448 182.765 44.051 182.592C44.1572 182.419 44.2975 182.27 44.4634 182.153C44.6293 182.036 44.8173 181.954 45.0158 181.912L89.5499 172.525C91.2888 173.505 90.7392 175.328 89.4635 175.597L89.464 175.597Z" fill="#CCCCCC"/>
<path d="M91.0816 183.27L47.3323 192.492C46.9495 192.581 46.5472 192.521 46.2067 192.325C45.8663 192.128 45.6131 191.81 45.4984 191.434C45.446 191.238 45.434 191.033 45.4632 190.832C45.4925 190.632 45.5623 190.439 45.6685 190.266C45.7748 190.093 45.9151 189.944 46.081 189.827C46.2468 189.71 46.4348 189.628 46.6334 189.586L91.1675 180.199C92.9064 181.179 92.3567 183.002 91.0811 183.271L91.0816 183.27Z" fill="#CCCCCC"/>
<path d="M38.7957 198.855L25.4438 201.669C25.0078 201.761 24.5533 201.675 24.18 201.432C23.8068 201.189 23.5453 200.807 23.453 200.372L20.1318 184.615C20.0404 184.179 20.1256 183.725 20.3689 183.351C20.6122 182.978 20.9937 182.717 21.4295 182.624L34.7814 179.81C35.2174 179.719 35.6718 179.804 36.045 180.047C36.4182 180.291 36.6798 180.672 36.7722 181.108L40.0934 196.864C40.1848 197.3 40.0995 197.755 39.8562 198.128C39.613 198.501 39.2315 198.763 38.7957 198.855V198.855Z" fill="#CCCCCC"/>
<path d="M94.2662 199.01L27.4968 213.084C27.1139 213.172 26.7117 213.113 26.3712 212.916C26.0308 212.72 25.7776 212.401 25.6629 212.026C25.6104 211.829 25.5985 211.625 25.6277 211.424C25.657 211.223 25.7268 211.03 25.833 210.857C25.9392 210.685 26.0796 210.535 26.2455 210.418C26.4113 210.301 26.5993 210.219 26.7979 210.178L94.3527 195.938C96.0915 196.918 95.5419 198.741 94.2662 199.01Z" fill="#CCCCCC"/>
<path d="M95.8842 206.686L29.1148 220.76C28.7319 220.849 28.3296 220.789 27.9892 220.592C27.6488 220.396 27.3956 220.078 27.2809 219.702C27.2284 219.506 27.2165 219.301 27.2457 219.1C27.275 218.899 27.3448 218.707 27.451 218.534C27.5572 218.361 27.6976 218.211 27.8634 218.094C28.0293 217.977 28.2173 217.896 28.4159 217.854L95.9706 203.614C97.7095 204.594 97.1599 206.417 95.8842 206.686Z" fill="#CCCCCC"/>
<path d="M97.5012 214.357L30.7317 228.431C30.3489 228.52 29.9466 228.46 29.6061 228.263C29.2657 228.067 29.0125 227.749 28.8978 227.373C28.8454 227.177 28.8334 226.972 28.8626 226.771C28.8919 226.57 28.9618 226.378 29.068 226.205C29.1742 226.032 29.3145 225.882 29.4804 225.765C29.6463 225.649 29.8342 225.567 30.0328 225.525L97.5876 211.285C99.3265 212.265 98.7769 214.088 97.5012 214.357Z" fill="#CCCCCC"/>
<path d="M99.119 222.033L32.3496 236.106C31.9667 236.195 31.5644 236.135 31.224 235.939C30.8836 235.743 30.6304 235.424 30.5157 235.048C30.4632 234.852 30.4513 234.648 30.4805 234.447C30.5098 234.246 30.5796 234.053 30.6858 233.88C30.792 233.707 30.9324 233.558 31.0982 233.441C31.2641 233.324 31.4521 233.242 31.6507 233.2L99.2054 218.961C100.944 219.941 100.395 221.764 99.119 222.033Z" fill="#CCCCCC"/>
<path d="M100.736 229.704L33.9667 243.778C33.5838 243.867 33.1815 243.807 32.8411 243.611C32.5007 243.414 32.2475 243.096 32.1328 242.72C32.0804 242.524 32.0684 242.319 32.0976 242.119C32.1269 241.918 32.1967 241.725 32.3029 241.552C32.4092 241.379 32.5495 241.23 32.7154 241.113C32.8812 240.996 33.0692 240.914 33.2678 240.872L100.823 226.633C102.561 227.613 102.012 229.435 100.736 229.704Z" fill="#CCCCCC"/>
<path d="M112.522 194.571C112.371 194.846 112.241 195.133 112.134 195.428L84.8 202.211L80.0448 197.292L71.6826 203.498L79.2544 213.025C79.8661 213.795 80.711 214.345 81.6621 214.594C82.6133 214.842 83.6195 214.776 84.5295 214.404L114.19 202.284C115.165 203.001 116.335 203.405 117.545 203.442C118.755 203.478 119.948 203.145 120.964 202.487C121.98 201.829 122.772 200.877 123.234 199.758C123.696 198.64 123.806 197.407 123.55 196.223C123.295 195.04 122.685 193.963 121.802 193.135C120.919 192.307 119.804 191.767 118.607 191.588C117.41 191.408 116.187 191.598 115.1 192.13C114.013 192.663 113.114 193.515 112.522 194.571L112.522 194.571Z" fill="#A0616A"/>
<path d="M19.22 254.933C20.0722 254.67 20.8563 254.223 21.5171 253.624C22.1779 253.025 22.6993 252.289 23.0447 251.466C23.39 250.644 23.5508 249.756 23.5159 248.865C23.4809 247.974 23.2509 247.101 22.8422 246.308L41.6531 194.024L28.5895 191.709L14.2068 243.83C12.9206 244.605 11.9634 245.825 11.5165 247.259C11.0696 248.692 11.164 250.24 11.782 251.608C12.3999 252.977 13.4984 254.071 14.8693 254.684C16.2402 255.297 17.7882 255.385 19.22 254.933Z" fill="#A0616A"/>
<path d="M39.2641 203.305L26.3659 198.355C25.9989 198.214 25.6666 197.996 25.3915 197.715C25.1165 197.434 24.9053 197.097 24.7722 196.727C24.6391 196.357 24.5873 195.963 24.6202 195.572C24.6532 195.18 24.7702 194.8 24.9633 194.457L31.7297 182.46C32.4612 180.587 33.9055 179.08 35.7462 178.27C37.5869 177.46 39.6737 177.413 41.5491 178.139C43.4245 178.865 44.9355 180.305 45.7508 182.143C46.5662 183.982 46.6193 186.068 45.8986 187.946L42.914 201.347C42.8284 201.73 42.6612 202.091 42.4236 202.404C42.1861 202.718 41.8838 202.976 41.5375 203.162C41.1911 203.348 40.8087 203.457 40.4164 203.481C40.0241 203.506 39.631 203.446 39.2641 203.305V203.305Z" fill="#FF9000"/>
<path d="M68.377 353.094L75.3393 353.094L78.6512 326.24L68.3759 326.24L68.377 353.094Z" fill="#A0616A"/>
<path d="M66.601 350.821L80.312 350.821H80.3125C81.46 350.821 82.5962 351.047 83.6564 351.486C84.7165 351.925 85.6797 352.569 86.4911 353.38C87.3025 354.191 87.9461 355.155 88.3852 356.215C88.8244 357.275 89.0504 358.411 89.0504 359.558V359.842L66.6014 359.843L66.601 350.821Z" fill="#2F2E41"/>
<path d="M29.1926 353.094L36.1549 353.094L39.4669 326.24L29.1915 326.24L29.1926 353.094Z" fill="#A0616A"/>
<path d="M27.4166 350.821L41.1276 350.821H41.1281C42.2756 350.821 43.4118 351.047 44.472 351.486C45.5321 351.925 46.4954 352.569 47.3067 353.38C48.1181 354.191 48.7617 355.155 49.2009 356.215C49.64 357.275 49.866 358.411 49.866 359.558V359.842L27.417 359.843L27.4166 350.821Z" fill="#2F2E41"/>
<path d="M36.4913 342.286H27.6807C27.3349 342.286 26.9927 342.216 26.6748 342.079C26.3569 341.943 26.07 341.744 25.8313 341.494C25.5927 341.244 25.4073 340.947 25.2865 340.623C25.1656 340.299 25.1117 339.954 25.1281 339.609L29.3131 249.694L29.5768 249.687L72.1227 248.577L80.4482 338.544C80.4802 338.881 80.4448 339.222 80.3441 339.545C80.2434 339.869 80.0795 340.169 79.8617 340.428C79.6439 340.688 79.3768 340.901 79.0757 341.057C78.7746 341.212 78.4457 341.306 78.108 341.333L68.2118 342.124C67.5901 342.174 66.9717 341.994 66.4731 341.62C65.9746 341.245 65.6301 340.701 65.5046 340.09L52.8462 276.046C52.8116 275.851 52.7084 275.675 52.5554 275.55C52.4023 275.425 52.2095 275.36 52.0119 275.365H52.0085C51.8102 275.36 51.617 275.427 51.4642 275.554C51.3113 275.68 51.2089 275.857 51.1758 276.052L38.9987 340.224C38.8834 340.804 38.5706 341.327 38.1135 341.703C37.6563 342.079 37.0831 342.285 36.4913 342.286Z" fill="#2F2E41"/>
<path d="M52.6306 169.501C60.3338 169.501 66.5785 163.256 66.5785 155.553C66.5785 147.85 60.3338 141.605 52.6306 141.605C44.9273 141.605 38.6826 147.85 38.6826 155.553C38.6826 163.256 44.9273 169.501 52.6306 169.501Z" fill="#A0616A"/>
<path d="M47.9855 260.293C41.3376 260.293 34.5093 258.545 28.8488 253.379C28.5475 253.106 28.315 252.765 28.17 252.385C28.025 252.006 27.9716 251.597 28.0143 251.193C28.6201 245.749 31.5591 217.641 29.904 198.865C29.581 195.358 30.0775 191.824 31.3543 188.542C32.6312 185.259 34.6534 182.319 37.2613 179.952C39.8236 177.59 42.8997 175.856 46.2468 174.887C49.5939 173.918 53.1204 173.74 56.5481 174.367H56.5482C56.722 174.398 56.8955 174.431 57.0694 174.464C68.2361 176.625 75.9948 186.96 75.1169 198.504C73.8358 215.347 72.6875 238.131 74.4907 251.015C74.5654 251.542 74.4733 252.079 74.2274 252.552C73.9815 253.024 73.5941 253.407 73.1193 253.648C69.0164 255.721 58.7369 260.293 47.9855 260.293Z" fill="#FF9000"/>
<path d="M66.154 204.309C65.8268 204.091 65.5503 203.805 65.3436 203.471C65.1368 203.137 65.0047 202.762 64.9561 202.371L63.2568 188.748C62.7173 186.81 62.9682 184.738 63.9543 182.985C64.9404 181.233 66.5813 179.942 68.5172 179.397C70.4531 178.853 72.5261 179.098 74.2817 180.079C76.0372 181.06 77.3321 182.697 77.8823 184.632L83.4796 197.217C83.6393 197.576 83.7197 197.965 83.7154 198.358C83.711 198.752 83.622 199.139 83.4544 199.495C83.2868 199.85 83.0446 200.165 82.7441 200.419C82.4437 200.672 82.0922 200.858 81.7135 200.964L68.4037 204.667C68.025 204.773 67.628 204.796 67.2397 204.734C66.8515 204.672 66.4811 204.527 66.154 204.309Z" fill="#FF9000"/>
<path d="M47.7615 169.304C46.4413 169.328 45.1293 169.091 43.9014 168.606C43.3611 168.397 42.8002 168.226 42.261 168.018C37.4983 166.178 34.3609 161.106 34.2486 156.001C34.1362 150.897 36.7797 145.942 40.705 142.677C44.6303 139.412 49.7145 137.736 54.8056 137.348C60.2895 136.93 66.4645 138.321 69.5289 142.888C70.3445 144.104 70.915 145.579 70.4317 147.046C70.2869 147.489 70.0283 147.887 69.6819 148.198C68.3134 149.416 66.9491 148.5 65.554 148.419C63.6365 148.308 61.9143 149.86 61.2953 151.678C60.6763 153.497 60.9487 155.498 61.4485 157.353C61.8293 158.469 62.0694 159.628 62.1631 160.803C62.2034 161.393 62.0926 161.983 61.8411 162.517C61.5895 163.052 61.2057 163.513 60.7258 163.858C59.5276 164.582 57.9541 164.163 56.7552 163.44C55.5563 162.717 54.5203 161.711 53.2253 161.179C51.9302 160.647 50.1904 160.765 49.4366 161.945C49.1971 162.374 49.0349 162.842 48.9576 163.328C48.2819 166.407 48.4372 166.225 47.7615 169.304V169.304Z" fill="#2F2E41"/>
<path d="M109.346 360.61H1.44716C1.29655 360.61 1.1521 360.55 1.0456 360.444C0.939103 360.337 0.879272 360.193 0.879272 360.042C0.879272 359.891 0.939103 359.747 1.0456 359.64C1.1521 359.534 1.29655 359.474 1.44716 359.474H109.346C109.497 359.474 109.641 359.534 109.748 359.64C109.854 359.747 109.914 359.891 109.914 360.042C109.914 360.193 109.854 360.337 109.748 360.444C109.641 360.55 109.497 360.61 109.346 360.61Z" fill="#FF9000"/>
<path d="M385.536 243.414L308.27 286.754C306.037 288.004 303.398 288.316 300.934 287.623C298.471 286.93 296.382 285.288 295.127 283.057L259.844 220.155C258.595 217.921 258.282 215.283 258.975 212.819C259.668 210.355 261.31 208.267 263.541 207.012L340.807 163.672C343.041 162.422 345.679 162.11 348.143 162.803C350.607 163.496 352.695 165.138 353.95 167.369L389.233 230.271C390.483 232.505 390.795 235.143 390.102 237.607C389.409 240.071 387.767 242.16 385.536 243.414Z" fill="white"/>
<path d="M385.536 243.414L308.27 286.754C306.037 288.004 303.398 288.316 300.934 287.623C298.471 286.93 296.382 285.288 295.127 283.057L259.844 220.155C258.595 217.921 258.282 215.283 258.975 212.819C259.668 210.355 261.31 208.267 263.541 207.012L340.807 163.672C343.041 162.422 345.679 162.11 348.143 162.803C350.607 163.496 352.695 165.138 353.95 167.369L389.233 230.271C390.483 232.505 390.795 235.143 390.102 237.607C389.409 240.071 387.767 242.16 385.536 243.414ZM264.097 208.003C262.129 209.11 260.68 210.952 260.068 213.126C259.457 215.3 259.732 217.628 260.835 219.599L296.118 282.501C297.225 284.47 299.068 285.919 301.242 286.53C303.416 287.142 305.744 286.866 307.715 285.763L384.98 242.424C386.949 241.317 388.398 239.474 389.009 237.3C389.621 235.126 389.345 232.798 388.243 230.827L352.959 167.925C351.852 165.956 350.01 164.507 347.836 163.896C345.662 163.284 343.334 163.56 341.363 164.663L264.097 208.003Z" fill="#3F3D56"/>
<path d="M342.62 187.488L303.625 209.361C303.287 209.56 302.885 209.623 302.501 209.537C302.118 209.452 301.781 209.224 301.559 208.899C301.45 208.728 301.378 208.536 301.346 208.336C301.314 208.135 301.323 207.93 301.372 207.734C301.422 207.537 301.511 207.352 301.635 207.191C301.758 207.03 301.913 206.896 302.09 206.796L341.785 184.531C343.737 184.947 343.757 186.85 342.62 187.488L342.62 187.488Z" fill="#CCCCCC"/>
<path d="M346.457 194.328L307.462 216.201C307.123 216.4 306.721 216.463 306.338 216.377C305.954 216.292 305.618 216.063 305.396 215.739C305.287 215.568 305.215 215.376 305.182 215.175C305.15 214.975 305.159 214.77 305.209 214.574C305.259 214.377 305.348 214.192 305.471 214.031C305.595 213.87 305.75 213.736 305.927 213.636L345.621 191.371C347.573 191.786 347.594 193.69 346.457 194.328L346.457 194.328Z" fill="#CCCCCC"/>
<path d="M301.217 224.824L289.316 231.499C288.927 231.717 288.468 231.771 288.039 231.65C287.61 231.53 287.247 231.244 287.028 230.856L279.151 216.812C278.933 216.423 278.879 215.964 278.999 215.535C279.12 215.106 279.406 214.742 279.794 214.524L291.695 207.848C292.084 207.631 292.543 207.577 292.972 207.697C293.401 207.818 293.764 208.104 293.983 208.492L301.86 222.536C302.078 222.925 302.132 223.384 302.012 223.813C301.891 224.242 301.605 224.605 301.217 224.824L301.217 224.824Z" fill="#CCCCCC"/>
<path d="M354.199 208.396L294.686 241.778C294.347 241.978 293.945 242.041 293.562 241.955C293.178 241.869 292.841 241.641 292.62 241.317C292.511 241.145 292.438 240.954 292.406 240.753C292.374 240.553 292.383 240.348 292.433 240.151C292.483 239.955 292.572 239.77 292.695 239.609C292.819 239.448 292.974 239.313 293.15 239.214L353.364 205.439C355.316 205.855 355.336 207.758 354.199 208.396Z" fill="#CCCCCC"/>
<path d="M358.037 215.238L298.524 248.62C298.185 248.82 297.783 248.883 297.399 248.797C297.016 248.711 296.679 248.483 296.457 248.159C296.349 247.987 296.276 247.796 296.244 247.595C296.212 247.395 296.221 247.19 296.271 246.993C296.32 246.797 296.41 246.612 296.533 246.451C296.656 246.29 296.811 246.155 296.988 246.056L357.202 212.281C359.154 212.697 359.174 214.6 358.037 215.238V215.238Z" fill="#CCCCCC"/>
<path d="M361.872 222.076L302.359 255.458C302.02 255.657 301.618 255.72 301.235 255.635C300.851 255.549 300.514 255.321 300.293 254.996C300.184 254.825 300.111 254.633 300.079 254.433C300.047 254.232 300.056 254.028 300.106 253.831C300.156 253.634 300.245 253.449 300.368 253.288C300.492 253.127 300.647 252.993 300.824 252.894L361.037 219.119C362.989 219.534 363.009 221.438 361.872 222.076Z" fill="#CCCCCC"/>
<path d="M365.71 228.917L306.196 262.299C305.858 262.499 305.456 262.562 305.072 262.476C304.689 262.39 304.352 262.162 304.13 261.838C304.021 261.666 303.949 261.475 303.917 261.274C303.885 261.074 303.894 260.869 303.943 260.672C303.993 260.475 304.082 260.291 304.206 260.13C304.329 259.969 304.484 259.834 304.661 259.735L364.874 225.96C366.827 226.376 366.847 228.279 365.71 228.917H365.71Z" fill="#CCCCCC"/>
<path d="M369.545 235.755L310.032 269.137C309.693 269.337 309.291 269.4 308.908 269.314C308.524 269.228 308.188 269 307.966 268.676C307.857 268.504 307.785 268.313 307.752 268.112C307.72 267.912 307.729 267.707 307.779 267.51C307.829 267.314 307.918 267.129 308.041 266.968C308.165 266.807 308.32 266.672 308.497 266.573L368.71 232.798C370.662 233.214 370.683 235.117 369.545 235.755V235.755Z" fill="#CCCCCC"/>
<path d="M359.163 261.38C359.487 260.665 359.65 259.888 359.641 259.103C359.633 258.318 359.452 257.545 359.112 256.838C358.772 256.13 358.281 255.506 357.673 255.009C357.066 254.512 356.357 254.154 355.596 253.961L353.978 234.951L346.194 241.091L348.924 258.202C348.684 259.501 348.929 260.844 349.612 261.975C350.295 263.106 351.37 263.947 352.632 264.339C353.894 264.73 355.256 264.646 356.459 264.1C357.663 263.555 358.625 262.587 359.163 261.38Z" fill="#FFB8B8"/>
<path d="M354.125 251.97L347.66 252.741C347.332 252.78 346.999 252.751 346.682 252.655C346.366 252.559 346.072 252.4 345.82 252.185C345.568 251.971 345.363 251.707 345.218 251.41C345.073 251.113 344.99 250.789 344.976 250.459L344.033 228.65L331.78 195.176C331.288 194.137 331.065 192.992 331.128 191.845C331.192 190.698 331.541 189.585 332.144 188.607C332.444 188.134 332.788 187.69 333.17 187.282C333.925 186.47 334.864 185.852 335.908 185.481C336.953 185.11 338.071 184.997 339.169 185.152C340.299 185.302 341.378 185.72 342.314 186.371C343.251 187.022 344.019 187.887 344.554 188.894L352.545 205.639C355.888 212.643 357.466 220.359 357.142 228.112L356.241 249.685C356.217 250.25 355.995 250.788 355.614 251.205C355.233 251.622 354.717 251.891 354.157 251.965L354.125 251.97Z" fill="#FF9000"/>
<path d="M377.082 346.222L371.089 348.852L358.09 326.987L366.935 323.104L377.082 346.222Z" fill="#FFB8B8"/>
<path d="M381.161 351.361L361.836 359.843L361.729 359.599C361.295 358.611 361.06 357.548 361.038 356.469C361.015 355.39 361.205 354.318 361.597 353.313C361.989 352.308 362.575 351.39 363.321 350.611C364.068 349.833 364.961 349.209 365.949 348.775L365.949 348.775L377.752 343.594L381.161 351.361Z" fill="#2F2E41"/>
<path d="M296.619 353.498H290.073L286.959 328.252L296.62 328.252L296.619 353.498Z" fill="#FFB8B8"/>
<path d="M298.288 359.843L277.183 359.842V359.576C277.183 358.497 277.395 357.429 277.808 356.432C278.221 355.435 278.826 354.53 279.589 353.767C280.351 353.004 281.257 352.399 282.254 351.986C283.25 351.573 284.319 351.361 285.397 351.361H285.398L298.288 351.361L298.288 359.843Z" fill="#2F2E41"/>
<path d="M360.344 344.867L323.882 263.499C323.817 263.346 323.705 263.218 323.563 263.131C323.421 263.045 323.256 263.005 323.09 263.017C322.925 263.029 322.767 263.092 322.638 263.197C322.51 263.302 322.418 263.445 322.374 263.605L300.158 342.198C300.011 342.748 299.673 343.228 299.204 343.551C298.735 343.873 298.166 344.018 297.6 343.959L285.467 342.745C284.842 342.68 284.267 342.373 283.864 341.89C283.462 341.408 283.263 340.787 283.31 340.16C287.169 292.16 293.253 246.858 311.478 217.201L311.575 217.043L339.143 222.449L375.947 339.646C376.128 340.25 376.067 340.901 375.775 341.46C375.483 342.018 374.984 342.441 374.384 342.636L363.286 346.203C362.717 346.388 362.1 346.354 361.556 346.106C361.012 345.859 360.579 345.417 360.344 344.867Z" fill="#2F2E41"/>
<path d="M324.9 175.52C332.142 175.52 338.013 169.649 338.013 162.407C338.013 155.165 332.142 149.294 324.9 149.294C317.658 149.294 311.787 155.165 311.787 162.407C311.787 169.649 317.658 175.52 324.9 175.52Z" fill="#FFB8B8"/>
<path d="M309.784 219.471L309.617 219.437L309.577 219.271C307.811 211.812 307.768 203.671 309.452 195.076C310.306 190.683 312.683 186.732 316.164 183.92C319.645 181.107 324.006 179.613 328.481 179.701C333.336 179.799 337.969 181.749 341.434 185.151C344.898 188.554 346.932 193.152 347.118 198.004C347.68 212.787 341.639 225.604 341.578 225.731L341.488 225.919L309.784 219.471Z" fill="#FF9000"/>
<path d="M274.632 244.418C275.408 244.303 276.15 244.02 276.805 243.587C277.46 243.155 278.012 242.584 278.423 241.915C278.833 241.246 279.092 240.495 279.181 239.715C279.27 238.935 279.187 238.146 278.937 237.401L294.041 225.745L284.663 222.528L271.758 234.09C270.536 234.592 269.54 235.524 268.959 236.711C268.379 237.898 268.254 239.257 268.608 240.53C268.962 241.803 269.771 242.902 270.881 243.619C271.991 244.335 273.326 244.62 274.632 244.418V244.418Z" fill="#FFB8B8"/>
<path d="M282.881 235.627C282.39 235.918 281.81 236.023 281.248 235.924C280.685 235.825 280.177 235.528 279.814 235.086L275.665 230.07C275.454 229.815 275.298 229.519 275.207 229.201C275.116 228.883 275.091 228.55 275.135 228.222C275.178 227.894 275.289 227.579 275.46 227.296C275.631 227.013 275.859 226.768 276.129 226.577L293.951 213.973L315.455 185.542C316.062 184.567 316.903 183.758 317.902 183.19C318.901 182.623 320.026 182.313 321.174 182.29C321.734 182.287 322.293 182.336 322.844 182.436C323.935 182.63 324.963 183.085 325.84 183.762C326.718 184.439 327.419 185.319 327.883 186.325C328.369 187.357 328.601 188.49 328.561 189.629C328.522 190.769 328.21 191.883 327.654 192.878L311.731 218.664L311.696 218.721L282.881 235.627Z" fill="#FF9000"/>
<path d="M327.245 161.593C326.278 160.003 324.145 159.554 322.294 159.736C320.442 159.917 318.641 160.568 316.781 160.553C311.615 160.513 307.627 154.217 309.799 149.53C311.58 145.686 316.029 143.998 320.053 142.673C328.491 139.895 338.184 137.226 345.84 141.73C348.28 143.208 350.281 145.31 351.637 147.82C352.993 150.33 353.654 153.156 353.552 156.007C353.38 159.551 352.022 163.192 353.171 166.55C354.495 170.424 358.695 172.503 362.663 173.508C369.62 175.27 376.955 174.987 383.956 176.567C390.956 178.148 398.13 182.346 400.017 189.27C401.256 193.818 399.963 198.714 397.821 202.913C395.636 207.198 392.599 210.991 388.896 214.06C385.194 217.13 380.904 219.411 376.289 220.765C371.674 222.119 366.831 222.516 362.057 221.933C357.283 221.349 352.679 219.797 348.525 217.372C340.062 212.431 333.952 204.079 330.31 194.981C328.244 189.673 326.79 184.148 325.976 178.512C325.16 173.236 325.852 167.904 327.33 162.774C327.4 162.582 327.428 162.378 327.413 162.174C327.399 161.971 327.341 161.773 327.245 161.593Z" fill="#2F2E41"/>
<path d="M374.551 360.61H266.652C266.501 360.61 266.357 360.55 266.25 360.444C266.144 360.337 266.084 360.193 266.084 360.042C266.084 359.891 266.144 359.747 266.25 359.64C266.357 359.534 266.501 359.474 266.652 359.474H374.551C374.701 359.474 374.846 359.534 374.952 359.64C375.059 359.747 375.119 359.891 375.119 360.042C375.119 360.193 375.059 360.337 374.952 360.444C374.846 360.55 374.701 360.61 374.551 360.61Z" fill="#FF9000"/>
</g>
<defs>
<clipPath id="clip0_5_3">
<rect width="400" height="360.61" fill="white" transform="translate(0.5)"/>
</clipPath>
</defs>
</svg>
